<?xml version="1.0" encoding="utf-8"?>
<!-- Generator: Adobe Illustrator 18.0.0, SVG Export Plug-In . SVG Version: 6.00 Build 0)  -->
<!DOCTYPE svg PUBLIC "-//W3C//DTD SVG 1.1//EN" "http://www.w3.org/Graphics/SVG/1.1/DTD/svg11.dtd">
<svg version="1.1" id="Layer_1" xmlns="http://www.w3.org/2000/svg" xmlns:xlink="http://www.w3.org/1999/xlink" x="0px" y="0px"
	 viewBox="0 0 1400 1400" enable-background="new 0 0 1400 1400" xml:space="preserve">
<rect fill="#FFFEF5" width="1400" height="1400"/>
<g opacity="0.22">
	<path fill="#DCC45F" d="M463.8,818.5l-5.4-15l-1-190.1l28-12.2H359l58.5,25.8c-3,1.5-5.1,4.6-5.1,8.2c0,4.2,2.8,7.7,6.7,8.8v31h5.1
		v-31c3.8-1.1,6.7-4.7,6.7-8.8c0-3.5-1.9-6.5-4.8-8.1l27.2-11.9l1,189.1l-5,14.3l-21.8,0.7l17.3,13.3l-6.1,20.9l18-12.4l18,12.3
		l-6.2-20.9l17.2-13.4L463.8,818.5z M421.6,639.3c-2.3,0-4.1-1.8-4.1-4.1c0-2.3,1.8-4.1,4.1-4.1c2.3,0,4.1,1.8,4.1,4.1
		C425.7,637.4,423.9,639.3,421.6,639.3z"/>
	<polygon fill="#DCC45F" points="588,840 596.1,840 596.1,852.4 739.3,852.4 739.3,840 747.5,840 747.5,833.5 588,833.5 	"/>
	<path fill="#DCC45F" d="M750.1,622.9h9.1v-6.6H576.8v6.6h7.5v198.2h-10.4v6.6h186.5v-6.6h-10.3V622.9z M698.1,643.2
		c-3-4.7-6.4-8.6-9.6-11.7c-3.8-3.7-7.6-6.6-10.8-8.7h20.4V643.2z M711.2,622.9h25c-3.2,2-7.2,5-11.5,9.1
		c-4.3,4.2-9.3,10.2-13.6,18.1V622.9z M636.4,622.9h20.8c-8.4,5.2-15.5,12.7-20.8,22.1V622.9z M623.3,650.1
		c-4.3-7.9-9.2-13.9-13.6-18.1c-4.2-4.1-8.3-7.1-11.5-9.1h25V650.1z M636.4,661.4c3.9-12,12.6-29,31.5-36.7
		c4.7,2.3,22.5,12.3,30.2,33.1v163.3h-61.7V661.4z M711.2,666.7c3.7-11.7,9.7-21.7,17.9-29.8c2.8-2.8,5.5-4.9,7.9-6.6v190.8h-25.8
		V666.7z M597.5,630.2c7.9,5.6,19.5,16.8,25.8,36.5v154.3h-25.8V630.2z"/>
	<path fill="#DCC45F" d="M596.1,858.9l66.4,29.3c-3.9,1.9-6.5,5.9-6.5,10.5c0,5.4,3.6,9.9,8.5,11.3v39.6h6.6V910
		c4.9-1.4,8.5-6,8.5-11.3c0-4.8-2.8-8.8-6.9-10.7l66.6-29.1H596.1z M667.8,903.9c-2.9,0-5.2-2.4-5.2-5.2c0-2.9,2.4-5.2,5.2-5.2
		c2.9,0,5.2,2.4,5.2,5.2C673.1,901.6,670.7,903.9,667.8,903.9z"/>
	<path fill="#DCC45F" d="M760.9,528.5c-13.8-29.1-68-53.1-89.8-75.6c0,0.1-0.1,0.2-0.1,0.3c3.6,12.7,13.1,22.6,23.2,33.1
		c5.4,5.6,11,11.4,15.6,17.7c19.7,26.8,21,65,4.5,93.6h-7.7c17.4-26.6,16.8-63.9-2.1-89.7c-4.4-6-9.8-11.6-15.1-17
		c-8.3-8.6-16.8-17.4-21.9-28.1c-5.1,10.7-13.6,19.5-21.9,28.1c-5.3,5.5-10.7,11.1-15.1,17c-19,25.8-19.5,63.1-2.1,89.7h-7.7
		c-16.5-28.5-15.2-66.8,4.5-93.6c4.6-6.3,10.2-12.1,15.6-17.7c10.1-10.5,19.6-20.4,23.2-33.1c-0.1-0.2-0.1-0.5-0.2-0.7
		c-22.9,23.5-77.7,43.9-90.1,75.7c-13.3,34.1-0.6,57.5,9.2,69.3h-12v12.7h193.2v-12.7h-12.1C762.9,585.5,776.6,561.6,760.9,528.5z"
		/>
	<path fill="#DCC45F" d="M668,449.8c7.8,0,14.1-6.3,14.1-14.1c0-7-5.1-12.8-11.8-13.9c3.4-1,6-4.2,6-8c0-3.8-2.5-7-6-8V0h-4.6v405.9
		c-3.5,1-6,4.2-6,8c0,3.8,2.5,7,6,8c-6.7,1.1-11.8,6.9-11.8,13.9C654,443.5,660.3,449.8,668,449.8z M668,428.2
		c4.2,0,7.5,3.4,7.5,7.5c0,4.2-3.4,7.5-7.5,7.5c-4.2,0-7.5-3.4-7.5-7.5C660.5,431.6,663.9,428.2,668,428.2z"/>
	<polygon fill="#DCC45F" points="152.2,1076.7 161.5,1076.7 161.5,1090.8 325.3,1090.8 325.3,1076.7 334.6,1076.7 334.6,1069.2 
		152.2,1069.2 	"/>
	<path fill="#DCC45F" d="M337.6,828.3h10.5v-7.5H139.5v7.5h8.6V1055h-11.9v7.5h149.1v3.5h15v-3.5h49.2v-7.5h-11.8V828.3z
		 M285.3,835.2v30.6c-4.5-12.3-11.7-21.4-18-27.6c-4.4-4.3-8.7-7.5-12.4-10h66.9c-3.7,2.3-8.3,5.7-13.1,10.4
		c-2.7,2.6-5.5,5.8-8.4,9.6v-13.1H285.3z M192.6,859.4c-4.9-9.1-10.6-15.9-15.5-20.7c-4.8-4.7-9.5-8.1-13.1-10.4h28.6V859.4z
		 M207.6,828.3h23.8c-9.6,6-17.7,14.5-23.8,25.3V828.3z M163.1,836.8c9,6.4,22.3,19.2,29.5,41.8V1055h-29.5V836.8z M207.6,1055
		V872.4c4.5-13.7,14.5-33.2,36.1-42c6.8,3.4,38,21,38.7,60.3l0.2,0c-0.1,0.7-0.3,1.3-0.4,2l3.1,0.5V1055H207.6z M300.3,861.9
		c3.7-6.5,8.1-12.4,13.4-17.6c3.2-3.2,6.3-5.7,9-7.6V1055h-22.4V861.9z"/>
	<path fill="#DCC45F" d="M161.5,1098.3l76,33.5c-4.4,2.2-7.4,6.8-7.4,12c0,6.1,4.1,11.3,9.7,12.9v45.3h7.5v-45.3
		c5.6-1.6,9.7-6.8,9.7-12.9c0-5.4-3.2-10.1-7.9-12.3l76.2-33.2H161.5z M243.5,1149.8c-3.3,0-6-2.7-6-6c0-3.3,2.7-6,6-6s6,2.7,6,6
		C249.5,1147.1,246.8,1149.8,243.5,1149.8z"/>
	<path fill="#DCC45F" d="M349.9,720.4c-15.8-33.3-77.7-60.7-102.8-86.4c0,0.1-0.1,0.3-0.1,0.4c4.1,14.5,15,25.8,26.5,37.8
		c6.2,6.4,12.6,13,17.9,20.3c22.5,30.6,24.1,74.4,5.2,107h-8.8c19.9-30.5,19.3-73.1-2.4-102.6c-5-6.8-11.2-13.3-17.3-19.5
		c-9.5-9.8-19.2-19.9-25-32.1c-5.8,12.2-15.5,22.3-25,32.1c-6,6.2-12.2,12.7-17.3,19.5c-21.7,29.5-22.3,72.1-2.4,102.6h-8.8
		c-18.9-32.6-17.4-76.4,5.2-107c5.3-7.2,11.7-13.8,17.9-20.3c11.5-12,22.5-23.3,26.5-37.8c-0.1-0.3-0.1-0.5-0.2-0.8
		c-26.2,26.9-88.9,50.3-103.1,86.6c-15.2,39-0.7,65.8,10.6,79.3h-13.7v14.5h221v-14.5H340C352.2,785.6,367.9,758.3,349.9,720.4z"/>
	<path fill="#DCC45F" d="M243.8,630.4c8.9,0,16.1-7.2,16.1-16.1c0-8-5.8-14.6-13.4-15.9c3.9-1.2,6.8-4.8,6.8-9.1
		c0-4.2-2.7-7.8-6.5-9V0h-4.6v580c-4.5,0.8-7.8,4.7-7.8,9.3c0,4.3,2.9,8,6.8,9.1c-7.6,1.3-13.4,7.9-13.4,15.9
		C227.7,623.1,234.9,630.4,243.8,630.4z M243.8,605.6c4.8,0,8.6,3.9,8.6,8.6c0,4.8-3.9,8.6-8.6,8.6c-4.8,0-8.6-3.9-8.6-8.6
		C235.1,609.5,239,605.6,243.8,605.6z"/>
	<path fill="#DCC45F" d="M855.1,414h16.1l-1.9,0.3l16.4,103.3h-6.4v7.5h117.9v-7.5h-6.4l16.4-103.3l-1.9-0.3h16.1v-3.9H855.1V414z
		 M877.2,414h34.2l5.1,103.6h-22.8L877.2,414z M919.2,414h38.4l-5.1,103.6h-28.2L919.2,414z M983,517.6h-22.8l5.1-103.6h34.2
		L983,517.6z"/>
	<rect x="860.1" y="399.1" fill="#DCC45F" width="156.5" height="7.5"/>
	<path fill="#DCC45F" d="M866.5,395c1.8,0,69.4,0,71.8,0c0,0,0,0,0,0c2.4,0,70.1,0,71.8,0c1.8,0-1.7-27.1-37.9-37.4
		c-30.4-8.6-33.7-19.4-33.9-19.8v0c0,0,0,0,0,0c0,0,0,0,0,0v0c-0.1,0.4-3.5,11.2-33.9,19.8C868.2,367.9,864.8,395,866.5,395z"/>
	<polygon fill="#DCC45F" points="884.8,532.9 890.3,532.9 890.3,541.4 986.4,541.4 986.4,532.9 991.9,532.9 991.9,529 884.8,529 	
		"/>
	<path fill="#DCC45F" d="M890.3,545.8l44.5,19.6c-2.3,1.2-3.9,3.5-3.9,6.3c0,3.2,2.1,5.9,5.1,6.7v23.5h3.9v-23.5
		c2.9-0.8,5.1-3.5,5.1-6.7c0-2.6-1.5-5-3.6-6.1l45.1-19.7H890.3z M937.9,574.8c-1.7,0-3.1-1.4-3.1-3.1c0-1.7,1.4-3.1,3.1-3.1
		c1.7,0,3.1,1.4,3.1,3.1C941,573.4,939.6,574.8,937.9,574.8z"/>
	<path fill="#DCC45F" d="M938.9,335.5c4.6,0,8.4-3.8,8.4-8.4c0-4.2-3.1-7.6-7-8.3c2.1-0.6,3.6-2.5,3.6-4.7c0-1.9-1.1-3.5-2.7-4.4V0
		h-4.6v309.9c-1.5,0.8-2.5,2.4-2.5,4.3c0,2.3,1.5,4.1,3.6,4.7c-4,0.6-7,4.1-7,8.3C930.5,331.8,934.3,335.5,938.9,335.5z
		 M938.9,322.7c2.5,0,4.5,2,4.5,4.5c0,2.5-2,4.5-4.5,4.5c-2.5,0-4.5-2-4.5-4.5C934.4,324.7,936.4,322.7,938.9,322.7z"/>
	<path fill="#DCC45F" d="M1053.4,293.6c0-17.3,12.6-31.6,29.1-34.4c-3.8-1.1-7.9-1.7-12.1-1.7c-8.4,0-16.2,2.4-22.8,6.5V0h-4.6
		v267.2c-9.8,8-16.1,20.1-16.1,33.8c0,24,19.5,43.5,43.5,43.5c16.4,0,30.7-9.1,38.1-22.5c-5.7,4.1-12.7,6.5-20.2,6.5
		C1069,328.5,1053.4,312.8,1053.4,293.6z"/>
	<polygon fill="#DCC45F" points="843.5,726.5 831.9,693.9 831.9,0 827.3,0 827.3,697.8 817.1,726.5 777.6,727.6 808.9,751.7 
		797.7,789.5 830.3,767.2 862.8,789.5 851.7,751.7 882.9,727.6 	"/>
	<polygon fill="#DCC45F" points="745.5,419.8 765.3,406.2 785.1,419.8 778.4,396.8 797.4,382.1 773.4,381.4 767.5,364.9 767.5,0 
		762.9,0 762.9,365.7 757.2,381.4 733.2,382.1 752.3,396.8 	"/>
	<polygon fill="#DCC45F" points="1178.6,381.4 1172.8,364.9 1172.8,0 1168.1,0 1168.1,365.7 1162.5,381.4 1138.5,382.1 
		1157.5,396.8 1150.7,419.8 1170.6,406.2 1190.4,419.8 1183.6,396.8 1202.7,382.1 	"/>
	<polygon fill="#DCC45F" points="567.9,263.6 585.1,250.3 563.3,249.7 557.9,234.7 556.9,0 552.7,0 553.7,235.5 548.7,249.8 
		526.9,250.5 544.2,263.7 538.1,284.7 556.1,272.3 574.1,284.5 	"/>
	<polygon fill="#DCC45F" points="1270,215.9 1248.2,215.4 1242.8,200.4 1241.8,0 1237.6,0 1238.6,201.2 1233.6,215.4 1211.8,216.1 
		1229.1,229.4 1223,250.3 1241,237.9 1259,250.2 1252.8,229.3 	"/>
	<path fill="#DCC45F" d="M147.2,546.5l-24.7,0.8l19.7,15.1l-6.9,23.8l20.4-14l20.5,13.9l-7.1-23.7l19.6-15.2l-24.8-0.6l-6.7-18.6
		l-0.1-89.6c14.3-6.2,26.2-17,33.7-30.6c-9.2,6.5-20.4,10.4-32.5,10.4c-0.4,0-0.8,0-1.2,0L156.3,0h-3.5l0.7,417.9
		c-28.8-2.4-51.5-26.5-51.5-55.9c0-27.8,20.3-50.9,46.8-55.4c-6.2-1.8-12.7-2.8-19.5-2.8c-12.5,0-24.3,3.3-34.5,9.1V0h-4.6v315.7
		c-18.7,12.6-31,33.9-31,58.1c0,38.7,31.4,70.1,70.1,70.1c8.5,0,16.6-1.5,24.2-4.3l0.1,88.7L147.2,546.5z"/>
	<path fill="#DCC45F" d="M312.7,427.8h21.2l-2.4,0.4l21.6,135.9h-8.5v9.9h155.2v-9.9h-8.5L513,428.2l-2.4-0.4h21.2v-5.1H312.7V427.8
		z M341.7,427.8h45l6.7,136.3h-30L341.7,427.8z M397,427.8h50.5l-6.7,136.3h-37.1L397,427.8z M480.9,564.1h-30l6.7-136.3h45
		L480.9,564.1z"/>
	<rect x="319.3" y="408.1" fill="#DCC45F" width="205.9" height="9.9"/>
	<path fill="#DCC45F" d="M327.7,402.7c2.3,0,91.3,0,94.5,0c0,0,0,0,0,0c3.1,0,92.2,0,94.5,0c2.3,0-2.2-35.7-49.9-49.2
		c-39.9-11.3-44.4-25.6-44.6-26.1v0c0,0,0,0,0,0c0,0,0,0,0,0v0c-0.2,0.5-4.6,14.8-44.6,26.1C329.9,367.1,325.4,402.7,327.7,402.7z"
		/>
	<polygon fill="#DCC45F" points="351.8,584.2 359,584.2 359,595.4 485.4,595.4 485.4,584.2 492.6,584.2 492.6,579 351.8,579 	"/>
	<path fill="#DCC45F" d="M422.9,324.5c6.1,0,11-4.9,11-11c0-5.5-4-10-9.2-10.8c2.7-0.8,4.7-3.3,4.7-6.2c0-3-2.1-5.6-4.9-6.3V0h-4.6
		v290.6c-2,1.1-3.4,3.2-3.4,5.7c0,3,2,5.4,4.7,6.2c-5.2,0.9-9.2,5.4-9.2,10.8C411.9,319.5,416.9,324.5,422.9,324.5z M422.9,307.5
		c3.2,0,5.9,2.6,5.9,5.9c0,3.2-2.6,5.9-5.9,5.9c-3.2,0-5.9-2.6-5.9-5.9C417,310.2,419.7,307.5,422.9,307.5z"/>
</g>
<polygon fill="#F0CE45" points="408.2,701.2 414.7,719.3 433.9,719.8 418.7,731.5 424.2,749.9 408.3,739.1 392.6,749.9 397.9,731.6 
	382.7,719.9 401.9,719.3 "/>
<g>
	<g>
		<rect x="520.7" y="544.4" fill="#EE7A22" width="11.5" height="177.3"/>
	</g>
	<g>
		<rect x="554.9" y="544.4" fill="#EE7A22" width="11.5" height="177.3"/>
	</g>
	<g>
		<rect x="514.1" y="541.6" fill="#EE7A22" width="160.3" height="5.8"/>
	</g>
	<g>
		<rect x="523.9" y="732.4" fill="#EE7A22" width="140.2" height="5.8"/>
	</g>
	<g>
		<rect x="511.5" y="721.5" fill="#EE7A22" width="163.9" height="5.8"/>
	</g>
	<g>
		<path fill="#EE7A22" d="M557.6,597.7c-5.8-37.2-32.4-48-32.7-48.1l2.1-5.4c0.3,0.1,7.7,3.1,15.9,11.1c7.5,7.3,17.1,20.5,20.4,41.5
			L557.6,597.7z"/>
	</g>
	<g>
		<rect x="654.8" y="544.4" fill="#EE7A22" width="11.5" height="177.3"/>
	</g>
	<g>
		<rect x="620.6" y="544.4" fill="#EE7A22" width="11.5" height="177.3"/>
	</g>
	<g>
		<path fill="#EE7A22" d="M629.4,597.7l-5.7-0.9c3.3-21,12.9-34.2,20.4-41.5c8.2-8,15.6-11,15.9-11.1l2.1,5.4l-1.1-2.7l1.1,2.7
			c-0.1,0-6.8,2.8-14.2,10.1C638,569.4,631.8,582.2,629.4,597.7z"/>
	</g>
	<g>
		<path fill="#EE7A22" d="M623.8,595.3c-0.5-30.1-24.4-43.7-29.7-46.3c-26.8,10.9-30.3,43.3-30.4,43.6L558,592c0-0.4,0.9-9.4,5.7-20
			c6.3-14.1,16.5-24.1,29.5-29l1.1-0.4l1.1,0.4c0.3,0.1,8.6,3.7,16.9,11.8c7.7,7.5,17,20.6,17.3,40.2L623.8,595.3z"/>
	</g>
	<g>
		<rect x="531" y="734.6" fill="#EE7A22" width="125.9" height="14.4"/>
	</g>
	<g>
		<polygon fill="#EE7A22" points="531,754.8 593.6,782.3 656.8,754.8 		"/>
	</g>
	<g>
		<g>
			<path fill="#EE7A22" d="M556.7,442.9c4.1-5.5,9-10.6,13.7-15.6c8.9-9.2,17.3-17.9,20.4-29c0-0.2-0.1-0.4-0.1-0.6
				c-20.1,20.6-68.3,38.6-79.2,66.5c-17.5,44.8,16.1,68.6,16.1,68.6l30.4,0C538.1,507.4,537.5,469,556.7,442.9z"/>
		</g>
		<g>
			<path fill="#EE7A22" d="M675.8,464.4c-12.1-25.6-59.7-46.6-79-66.4c0,0.1-0.1,0.2-0.1,0.3c3.1,11.1,11.5,19.9,20.4,29
				c4.8,4.9,9.7,10,13.7,15.6c19.2,26.1,18.6,64.6-1.3,90.1l30.1,0C659.7,533,696.3,507.7,675.8,464.4z"/>
		</g>
		<g>
			<path fill="#EE7A22" d="M626.3,446.3c-3.9-5.2-8.6-10.2-13.3-15c-7.3-7.6-14.8-15.3-19.2-24.7c-4.4,9.4-11.9,17.1-19.2,24.7
				c-4.6,4.8-9.4,9.7-13.3,15c-17.9,24.3-17.1,60.4,1.9,84l-3.2,2.6l67.8,0.1l-3.3-2.7C643.4,506.8,644.2,470.7,626.3,446.3z"/>
		</g>
		<g>
			<path fill="#EE7A22" d="M558.7,533.9l1.2-1l-2,0C558.2,533.2,558.4,533.6,558.7,533.9z"/>
		</g>
		<g>
			<path fill="#EE7A22" d="M628.9,533.9c0.2-0.3,0.5-0.6,0.7-0.9l-1.8,0L628.9,533.9z"/>
		</g>
	</g>
	<g>
		<rect x="509" y="525.1" fill="#EE7A22" width="169.8" height="11.1"/>
	</g>
	<g>
		<path fill="#EE7A22" d="M594.2,395.3c-6.8,0-12.4-5.6-12.4-12.4c0-6.8,5.6-12.4,12.4-12.4c6.8,0,12.4,5.6,12.4,12.4
			C606.6,389.7,601,395.3,594.2,395.3z M594.2,376.3c-3.6,0-6.6,3-6.6,6.6s3,6.6,6.6,6.6c3.6,0,6.6-3,6.6-6.6
			S597.9,376.3,594.2,376.3z"/>
	</g>
	<g>
		<circle fill="#EE7A22" cx="594.2" cy="363.7" r="7.3"/>
	</g>
	<g>
		<path fill="#EE7A22" d="M594,800.1c-5.7,0-10.4-4.6-10.4-10.4c0-5.7,4.6-10.4,10.4-10.4s10.4,4.6,10.4,10.4
			C604.4,795.4,599.7,800.1,594,800.1z M594,785.1c-2.5,0-4.6,2.1-4.6,4.6c0,2.5,2.1,4.6,4.6,4.6s4.6-2.1,4.6-4.6
			C598.6,787.2,596.6,785.1,594,785.1z"/>
	</g>
	<g>
		<rect x="591.1" y="797.2" fill="#EE7A22" width="5.8" height="37.2"/>
	</g>
</g>
<g>
	<g>
		<rect x="137.3" y="724.6" fill="#11AB8E" width="13.2" height="202.8"/>
	</g>
	<g>
		<rect x="176.4" y="724.6" fill="#11AB8E" width="13.2" height="202.8"/>
	</g>
	<g>
		<rect x="129.7" y="721.3" fill="#11AB8E" width="183.4" height="6.6"/>
	</g>
	<g>
		<rect x="140.9" y="939.5" fill="#11AB8E" width="160.3" height="6.6"/>
	</g>
	<g>
		<rect x="126.8" y="927.1" fill="#11AB8E" width="187.5" height="6.6"/>
	</g>
	<g>
		<path fill="#11AB8E" d="M179.6,785.5c-6.6-42.5-37.1-54.9-37.4-55l2.4-6.1c0.4,0.1,8.8,3.5,18.2,12.7c8.6,8.4,19.5,23.4,23.3,47.5
			L179.6,785.5z"/>
	</g>
	<g>
		<rect x="290.7" y="724.6" fill="#11AB8E" width="13.2" height="202.8"/>
	</g>
	<g>
		<rect x="252.9" y="725.9" fill="#11AB8E" width="13.2" height="202.8"/>
	</g>
	<g>
		<path fill="#11AB8E" d="M261.6,785.5l-6.5-1c3.8-24.1,14.7-39.1,23.3-47.5c9.4-9.2,17.8-12.5,18.2-12.7l2.4,6.1l-1.2-3.1l1.2,3.1
			c-0.1,0-7.8,3.2-16.2,11.5C271.5,753.1,264.4,767.7,261.6,785.5z"/>
	</g>
	<g>
		<path fill="#11AB8E" d="M255.2,782.7c-0.5-34.5-28-50-34-53c-30.7,12.4-34.7,49.5-34.7,49.9L180,779c0-0.4,1.1-10.8,6.5-22.8
			c7.2-16.1,18.9-27.6,33.7-33.1l1.2-0.5l1.2,0.5c0.4,0.2,9.8,4.2,19.3,13.5c8.8,8.6,19.5,23.6,19.8,46L255.2,782.7z"/>
	</g>
	<g>
		<rect x="149.1" y="942.1" fill="#11AB8E" width="143.9" height="16.4"/>
	</g>
	<g>
		<polygon fill="#11AB8E" points="149.1,965.1 220.7,996.7 293,965.1 		"/>
	</g>
	<g>
		<g>
			<path fill="#11AB8E" d="M178.5,608.4c4.7-6.3,10.3-12.2,15.7-17.8c10.1-10.5,19.7-20.5,23.3-33.2c-0.1-0.2-0.1-0.5-0.2-0.7
				c-23,23.6-78.1,44.2-90.6,76.1c-20,51.2,18.4,78.5,18.4,78.5l34.7,0C157.2,682.2,156.5,638.2,178.5,608.4z"/>
		</g>
		<g>
			<path fill="#11AB8E" d="M314.7,633c-13.9-29.3-68.3-53.3-90.3-75.9c0,0.1-0.1,0.2-0.1,0.3c3.6,12.7,13.2,22.7,23.3,33.2
				c5.4,5.6,11.1,11.5,15.7,17.8c22,29.8,21.2,73.9-1.5,103l34.4,0C296.3,711.5,338.2,682.6,314.7,633z"/>
		</g>
		<g>
			<path fill="#11AB8E" d="M258,612.3c-4.4-6-9.9-11.7-15.2-17.1c-8.3-8.6-16.9-17.5-22-28.2c-5.1,10.7-13.6,19.6-22,28.2
				c-5.3,5.5-10.8,11.1-15.2,17.1c-20.5,27.8-19.6,69.1,2.1,96l-3.7,3l77.6,0.1l-3.8-3.1C277.6,681.5,278.5,640.2,258,612.3z"/>
		</g>
		<g>
			<path fill="#11AB8E" d="M180.8,712.5l1.4-1.1l-2.3,0C180.2,711.8,180.5,712.1,180.8,712.5z"/>
		</g>
		<g>
			<path fill="#11AB8E" d="M261,712.5c0.3-0.3,0.5-0.7,0.8-1l-2.1,0L261,712.5z"/>
		</g>
	</g>
	<g>
		<rect x="123.9" y="702.5" fill="#11AB8E" width="194.2" height="12.7"/>
	</g>
	<g>
		<path fill="#11AB8E" d="M221.4,553.9c-7.8,0-14.2-6.3-14.2-14.2c0-7.8,6.3-14.2,14.2-14.2s14.2,6.3,14.2,14.2
			C235.5,547.6,229.2,553.9,221.4,553.9z M221.4,532.2c-4.2,0-7.6,3.4-7.6,7.6c0,4.2,3.4,7.6,7.6,7.6s7.6-3.4,7.6-7.6
			C229,535.6,225.6,532.2,221.4,532.2z"/>
	</g>
	<g>
		<circle fill="#11AB8E" cx="221.4" cy="517.8" r="8.3"/>
	</g>
	<g>
		<path fill="#11AB8E" d="M221.2,1017c-6.5,0-11.9-5.3-11.9-11.9c0-6.5,5.3-11.9,11.9-11.9s11.9,5.3,11.9,11.9
			C233,1011.6,227.7,1017,221.2,1017z M221.2,999.8c-2.9,0-5.3,2.4-5.3,5.3c0,2.9,2.4,5.3,5.3,5.3c2.9,0,5.3-2.4,5.3-5.3
			C226.4,1002.2,224.1,999.8,221.2,999.8z"/>
	</g>
	<g>
		<rect x="217.9" y="1013.7" fill="#11AB8E" width="6.6" height="42.6"/>
	</g>
</g>
<g>
	<line fill="#EE7A22" x1="594.2" y1="360.3" x2="594.2" y2="0"/>
	<rect x="592.2" y="0" fill="#EE7A22" width="4.1" height="360.3"/>
</g>
<g>
	<rect x="677.5" y="0" fill="#7C4D9F" width="4.1" height="324.5"/>
</g>
<g>
	<line fill="#EED363" x1="736.2" y1="635.2" x2="736.2" y2="0"/>
	<rect x="734.1" y="0" fill="#EED363" width="4.1" height="635.2"/>
</g>
<g>
	<g>
		<rect x="758.6" y="360.4" fill="#11AB8E" width="146.2" height="3.4"/>
	</g>
	<g>
		<rect x="763" y="350.7" fill="#11AB8E" width="137.5" height="6.6"/>
	</g>
	<g>
		<rect x="779.9" y="454.8" fill="#11AB8E" width="103.6" height="6.6"/>
	</g>
	<g>
		<path fill="#11AB8E" d="M831.4,508.5c-3.4,0-6.2-2.8-6.2-6.2c0-3.4,2.8-6.2,6.2-6.2c3.4,0,6.2,2.8,6.2,6.2
			C837.5,505.7,834.7,508.5,831.4,508.5z M831.4,499.6c-1.5,0-2.7,1.2-2.7,2.7c0,1.5,1.2,2.7,2.7,2.7c1.5,0,2.7-1.2,2.7-2.7
			C834.1,500.8,832.9,499.6,831.4,499.6z"/>
	</g>
	<g>
		<path fill="#11AB8E" d="M861.5,314.3c-26.7-7.6-29.6-17.1-29.8-17.4v0c0,0,0,0,0,0c0,0,0,0,0,0v0c-0.1,0.4-3.1,9.9-29.8,17.4
			c-31.9,9-34.9,32.8-33.3,32.8c1.5,0,61,0,63.1,0c0,0,0,0,0,0c2.1,0,61.6,0,63.1,0C896.4,347.1,893.4,323.3,861.5,314.3z"/>
	</g>
	<g>
		<g>
			
				<rect x="733.9" y="407.7" transform="matrix(0.1572 0.9876 -0.9876 0.1572 1065.0682 -425.8939)" fill="#11AB8E" width="96.3" height="6.8"/>
		</g>
		<g>
			
				<rect x="766.2" y="407.7" transform="matrix(4.912028e-002 0.9988 -0.9988 4.912028e-002 1184.3973 -421.8978)" fill="#11AB8E" width="95.2" height="6.8"/>
		</g>
		<g>
			
				<rect x="878" y="362.9" transform="matrix(0.9876 0.1572 -0.1572 0.9876 75.5935 -133.4616)" fill="#11AB8E" width="6.8" height="96.3"/>
		</g>
		<g>
			
				<rect x="846.3" y="363.5" transform="matrix(0.9988 4.911936e-002 -4.911936e-002 0.9988 21.2181 -41.24)" fill="#11AB8E" width="6.8" height="95.2"/>
		</g>
	</g>
	<g>
		<rect x="784.7" y="464.8" fill="#11AB8E" width="94.1" height="3.4"/>
	</g>
	<g>
		<rect x="789.5" y="466.1" fill="#11AB8E" width="84.5" height="9.6"/>
	</g>
	<g>
		<polygon fill="#11AB8E" points="789.5,479.6 831.5,498.1 874,479.6 		"/>
	</g>
	<g>
		<rect x="829.6" y="506.8" fill="#11AB8E" width="3.4" height="22.1"/>
	</g>
	<g>
		<path fill="#11AB8E" d="M832.2,294.8c-4.1,0-7.4-3.3-7.4-7.4s3.3-7.4,7.4-7.4s7.4,3.3,7.4,7.4S836.3,294.8,832.2,294.8z
			 M832.2,283.5c-2.2,0-3.9,1.8-3.9,3.9c0,2.2,1.8,3.9,3.9,3.9s3.9-1.8,3.9-3.9C836.2,285.3,834.4,283.5,832.2,283.5z"/>
	</g>
	<g>
		<circle fill="#11AB8E" cx="832.2" cy="276.1" r="4.3"/>
	</g>
</g>
<g>
	<line fill="#11AB8E" x1="832.2" y1="276" x2="832.2" y2="0"/>
	<rect x="830.1" y="0" fill="#11AB8E" width="4.1" height="276"/>
</g>
<g>
	<line fill="#11AB8E" x1="222" y1="512.7" x2="222" y2="0"/>
	<rect x="219.9" y="0" fill="#11AB8E" width="4.1" height="512.7"/>
</g>
<g>
	<path fill="#EE7A22" d="M932.9,258c0-15.2,11.1-27.8,25.6-30.2c-3.4-1-6.9-1.5-10.6-1.5c-21.1,0-38.2,17.1-38.2,38.2
		c0,21.1,17.1,38.2,38.2,38.2c14.4,0,27-8,33.5-19.8c-5,3.6-11.1,5.7-17.8,5.7C946.6,288.6,932.9,274.9,932.9,258z"/>
</g>
<polygon fill="#F0CE45" points="736.8,605.8 748.4,638.4 783,639.4 755.6,660.5 765.4,693.8 736.8,674.2 708.2,693.8 718,660.5 
	690.5,639.4 725.2,638.4 "/>
<polygon fill="#7C4D9F" points="679.7,315.3 686.8,335.2 707.9,335.7 691.2,348.6 697.1,368.9 679.7,357 662.3,368.9 668.2,348.6 
	651.5,335.7 672.6,335.2 "/>
<g>
	<rect x="1033.6" y="0" fill="#7C4D9F" width="4.1" height="324.5"/>
</g>
<polygon fill="#7C4D9F" points="1035.8,315.3 1042.9,335.2 1064,335.7 1047.3,348.6 1053.2,368.9 1035.8,357 1018.4,368.9 
	1024.3,348.6 1007.6,335.7 1028.7,335.2 "/>
<g>
	<polygon fill="#11AB8E" points="497.5,209.8 493.8,209.8 492.8,0 496.5,0 	"/>
</g>
<polygon fill="#11AB8E" points="495.7,201.4 502.2,219.5 521.3,219.9 506.2,231.7 511.7,250 495.8,239.3 480,250.1 485.4,231.7 
	470.2,220.1 489.3,219.5 "/>
<g>
	<polygon fill="#F0CE45" points="410,709.6 406.3,709.7 405.4,530 409.1,530 	"/>
</g>
<polygon fill="#F0CE45" points="1097.6,171.2 1104,189.3 1123.2,189.7 1108.1,201.5 1113.5,219.8 1097.7,209.1 1081.9,219.9 
	1087.2,201.5 1072,189.9 1091.2,189.3 "/>
<g>
	<polygon fill="#F0CE45" points="1099.3,179.6 1095.6,179.6 1094.7,0 1098.4,0 	"/>
</g>
<polygon fill="#EE7A22" points="143.8,459.7 151.1,480.2 172.9,480.7 155.7,494.1 161.9,514.9 143.9,502.7 126,515 132.1,494.1 
	114.8,480.9 136.5,480.2 "/>
<g>
	<polygon fill="#EE7A22" points="145.3,474 142.2,474 141.4,0 144.5,0 	"/>
</g>
<rect x="923.7" y="0" fill="#EE7A22" width="4.1" height="273.2"/>
<g>
	<g>
		<g>
			<rect x="282" y="371.4" fill="#7C4D9F" width="192.4" height="4.5"/>
		</g>
		<g>
			<rect x="287.7" y="358.6" fill="#7C4D9F" width="180.9" height="8.7"/>
		</g>
		<g>
			<rect x="310" y="495.7" fill="#7C4D9F" width="136.4" height="8.7"/>
		</g>
		<g>
			<path fill="#7C4D9F" d="M377.7,566.2c-4.5,0-8.1-3.6-8.1-8.1c0-4.5,3.6-8.1,8.1-8.1c4.5,0,8.1,3.6,8.1,8.1
				C385.8,562.6,382.1,566.2,377.7,566.2z M377.7,554.5c-2,0-3.6,1.6-3.6,3.6c0,2,1.6,3.6,3.6,3.6c2,0,3.6-1.6,3.6-3.6
				C381.3,556.2,379.7,554.5,377.7,554.5z"/>
		</g>
		<g>
			<path fill="#7C4D9F" d="M417.3,310.7c-35.1-9.9-39-22.5-39.1-22.9v0c0,0,0,0,0,0c0,0,0,0,0,0v0c-0.1,0.5-4,13-39.1,22.9
				c-41.9,11.9-45.9,43.2-43.9,43.2c2,0,80.3,0,83,0c0,0,0,0,0,0c2.8,0,81,0,83,0C463.2,353.9,459.3,322.5,417.3,310.7z"/>
		</g>
		<g>
			<g>
				
					<rect x="249.5" y="433.6" transform="matrix(0.1572 0.9876 -0.9876 0.1572 696.2852 60.2645)" fill="#7C4D9F" width="126.7" height="9"/>
			</g>
			<g>
				
					<rect x="291.9" y="433.6" transform="matrix(4.912028e-002 0.9988 -0.9988 4.912028e-002 774.7025 62.4502)" fill="#7C4D9F" width="125.3" height="9"/>
			</g>
			<g>
				
					<rect x="439" y="374.7" transform="matrix(0.9876 0.1572 -0.1572 0.9876 74.3936 -64.2836)" fill="#7C4D9F" width="9" height="126.7"/>
			</g>
			<g>
				
					<rect x="397.3" y="375.4" transform="matrix(0.9988 4.911936e-002 -4.911936e-002 0.9988 22.0039 -19.2077)" fill="#7C4D9F" width="9" height="125.3"/>
			</g>
		</g>
		<g>
			<rect x="316.3" y="508.8" fill="#7C4D9F" width="123.8" height="4.5"/>
		</g>
		<g>
			<rect x="322.6" y="510.5" fill="#7C4D9F" width="111.1" height="12.7"/>
		</g>
		<g>
			<polygon fill="#7C4D9F" points="322.6,528.3 377.9,552.6 433.7,528.3 			"/>
		</g>
		<g>
			<rect x="375.4" y="564" fill="#7C4D9F" width="4.5" height="29.1"/>
		</g>
		<g>
			<path fill="#7C4D9F" d="M378.8,285.1c-5.3,0-9.7-4.3-9.7-9.7s4.3-9.7,9.7-9.7c5.3,0,9.7,4.3,9.7,9.7S384.2,285.1,378.8,285.1z
				 M378.8,270.3c-2.9,0-5.2,2.3-5.2,5.2c0,2.9,2.3,5.2,5.2,5.2s5.2-2.3,5.2-5.2C384,272.6,381.7,270.3,378.8,270.3z"/>
		</g>
		<g>
			<circle fill="#7C4D9F" cx="378.8" cy="260.4" r="5.7"/>
		</g>
	</g>
	<g>
		<line fill="#7C4D9F" x1="378.2" y1="260.4" x2="378.2" y2="0"/>
		<rect x="376.1" y="0" fill="#7C4D9F" width="4.1" height="260.4"/>
	</g>
</g>
<g>
	<line fill="#EED363" x1="87.3" y1="308" x2="87.3" y2="0"/>
	<rect x="85.4" fill="#EED363" width="3.9" height="308"/>
</g>
<g>
	<path fill="#F0CE45" d="M96.8,318c0-24.5,17.8-44.7,41.1-48.6c-5.4-1.6-11.2-2.4-17.1-2.4c-34,0-61.6,27.6-61.6,61.6
		s27.6,61.6,61.6,61.6c23.2,0,43.4-12.9,53.9-31.8c-8.1,5.8-17.9,9.1-28.6,9.1C118.9,367.4,96.8,345.3,96.8,318z"/>
</g>
<polygon fill="#F0CE45" points="408.2,701.2 414.7,719.3 433.9,719.8 418.7,731.5 424.2,749.9 408.3,739.1 392.6,749.9 397.9,731.6 
	382.7,719.9 401.9,719.3 "/>
<g>
	<g>
		<rect x="520.7" y="544.4" fill="#EE7A22" width="11.5" height="177.3"/>
	</g>
	<g>
		<rect x="554.9" y="544.4" fill="#EE7A22" width="11.5" height="177.3"/>
	</g>
	<g>
		<rect x="514.1" y="541.6" fill="#EE7A22" width="160.3" height="5.8"/>
	</g>
	<g>
		<rect x="523.9" y="732.4" fill="#EE7A22" width="140.2" height="5.8"/>
	</g>
	<g>
		<rect x="511.5" y="721.5" fill="#EE7A22" width="163.9" height="5.8"/>
	</g>
	<g>
		<path fill="#EE7A22" d="M557.6,597.7c-5.8-37.2-32.4-48-32.7-48.1l2.1-5.4c0.3,0.1,7.7,3.1,15.9,11.1c7.5,7.3,17.1,20.5,20.4,41.5
			L557.6,597.7z"/>
	</g>
	<g>
		<rect x="654.8" y="544.4" fill="#EE7A22" width="11.5" height="177.3"/>
	</g>
	<g>
		<rect x="620.6" y="544.4" fill="#EE7A22" width="11.5" height="177.3"/>
	</g>
	<g>
		<path fill="#EE7A22" d="M629.4,597.7l-5.7-0.9c3.3-21,12.9-34.2,20.4-41.5c8.2-8,15.6-11,15.9-11.1l2.1,5.4l-1.1-2.7l1.1,2.7
			c-0.1,0-6.8,2.8-14.2,10.1C638,569.4,631.8,582.2,629.4,597.7z"/>
	</g>
	<g>
		<path fill="#EE7A22" d="M623.8,595.3c-0.5-30.1-24.4-43.7-29.7-46.3c-26.8,10.9-30.3,43.3-30.4,43.6L558,592c0-0.4,0.9-9.4,5.7-20
			c6.3-14.1,16.5-24.1,29.5-29l1.1-0.4l1.1,0.4c0.3,0.1,8.6,3.7,16.9,11.8c7.7,7.5,17,20.6,17.3,40.2L623.8,595.3z"/>
	</g>
	<g>
		<rect x="531" y="734.6" fill="#EE7A22" width="125.9" height="14.4"/>
	</g>
	<g>
		<polygon fill="#EE7A22" points="531,754.8 593.6,782.3 656.8,754.8 		"/>
	</g>
	<g>
		<g>
			<path fill="#EE7A22" d="M556.7,442.9c4.1-5.5,9-10.6,13.7-15.6c8.9-9.2,17.3-17.9,20.4-29c0-0.2-0.1-0.4-0.1-0.6
				c-20.1,20.6-68.3,38.6-79.2,66.5c-17.5,44.8,16.1,68.6,16.1,68.6l30.4,0C538.1,507.4,537.5,469,556.7,442.9z"/>
		</g>
		<g>
			<path fill="#EE7A22" d="M675.8,464.4c-12.1-25.6-59.7-46.6-79-66.4c0,0.1-0.1,0.2-0.1,0.3c3.1,11.1,11.5,19.9,20.4,29
				c4.8,4.9,9.7,10,13.7,15.6c19.2,26.1,18.6,64.6-1.3,90.1l30.1,0C659.7,533,696.3,507.7,675.8,464.4z"/>
		</g>
		<g>
			<path fill="#EE7A22" d="M626.3,446.3c-3.9-5.2-8.6-10.2-13.3-15c-7.3-7.6-14.8-15.3-19.2-24.7c-4.4,9.4-11.9,17.1-19.2,24.7
				c-4.6,4.8-9.4,9.7-13.3,15c-17.9,24.3-17.1,60.4,1.9,84l-3.2,2.6l67.8,0.1l-3.3-2.7C643.4,506.8,644.2,470.7,626.3,446.3z"/>
		</g>
		<g>
			<path fill="#EE7A22" d="M558.7,533.9l1.2-1l-2,0C558.2,533.2,558.4,533.6,558.7,533.9z"/>
		</g>
		<g>
			<path fill="#EE7A22" d="M628.9,533.9c0.2-0.3,0.5-0.6,0.7-0.9l-1.8,0L628.9,533.9z"/>
		</g>
	</g>
	<g>
		<rect x="509" y="525.1" fill="#EE7A22" width="169.8" height="11.1"/>
	</g>
	<g>
		<path fill="#EE7A22" d="M594.2,395.3c-6.8,0-12.4-5.6-12.4-12.4c0-6.8,5.6-12.4,12.4-12.4c6.8,0,12.4,5.6,12.4,12.4
			C606.6,389.7,601,395.3,594.2,395.3z M594.2,376.3c-3.6,0-6.6,3-6.6,6.6s3,6.6,6.6,6.6c3.6,0,6.6-3,6.6-6.6
			S597.9,376.3,594.2,376.3z"/>
	</g>
	<g>
		<circle fill="#EE7A22" cx="594.2" cy="363.7" r="7.3"/>
	</g>
	<g>
		<path fill="#EE7A22" d="M594,800.1c-5.7,0-10.4-4.6-10.4-10.4c0-5.7,4.6-10.4,10.4-10.4s10.4,4.6,10.4,10.4
			C604.4,795.4,599.7,800.1,594,800.1z M594,785.1c-2.5,0-4.6,2.1-4.6,4.6c0,2.5,2.1,4.6,4.6,4.6s4.6-2.1,4.6-4.6
			C598.6,787.2,596.6,785.1,594,785.1z"/>
	</g>
	<g>
		<rect x="591.1" y="797.2" fill="#EE7A22" width="5.8" height="37.2"/>
	</g>
</g>
<g>
	<g>
		<rect x="137.3" y="724.6" fill="#11AB8E" width="13.2" height="202.8"/>
	</g>
	<g>
		<rect x="176.4" y="724.6" fill="#11AB8E" width="13.2" height="202.8"/>
	</g>
	<g>
		<rect x="129.7" y="721.3" fill="#11AB8E" width="183.4" height="6.6"/>
	</g>
	<g>
		<rect x="140.9" y="939.5" fill="#11AB8E" width="160.3" height="6.6"/>
	</g>
	<g>
		<rect x="126.8" y="927.1" fill="#11AB8E" width="187.5" height="6.6"/>
	</g>
	<g>
		<path fill="#11AB8E" d="M179.6,785.5c-6.6-42.5-37.1-54.9-37.4-55l2.4-6.1c0.4,0.1,8.8,3.5,18.2,12.7c8.6,8.4,19.5,23.4,23.3,47.5
			L179.6,785.5z"/>
	</g>
	<g>
		<rect x="290.7" y="724.6" fill="#11AB8E" width="13.2" height="202.8"/>
	</g>
	<g>
		<path fill="#11AB8E" d="M261.6,785.5l-6.5-1c3.8-24.1,14.7-39.1,23.3-47.5c9.4-9.2,17.8-12.5,18.2-12.7l2.4,6.1l-1.2-3.1l1.2,3.1
			c-0.1,0-7.8,3.2-16.2,11.5C271.5,753.1,264.4,767.7,261.6,785.5z"/>
	</g>
	<g>
		<path fill="#11AB8E" d="M255.2,782.7c-0.5-34.5-28-50-34-53c-30.7,12.4-34.7,49.5-34.7,49.9L180,779c0-0.4,1.1-10.8,6.5-22.8
			c7.2-16.1,18.9-27.6,33.7-33.1l1.2-0.5l1.2,0.5c0.4,0.2,9.8,4.2,19.3,13.5c8.8,8.6,19.5,23.6,19.8,46L255.2,782.7z"/>
	</g>
	<g>
		<rect x="149.1" y="942.1" fill="#11AB8E" width="143.9" height="16.4"/>
	</g>
	<g>
		<polygon fill="#11AB8E" points="149.1,965.1 220.7,996.7 293,965.1 		"/>
	</g>
	<g>
		<g>
			<path fill="#11AB8E" d="M178.5,608.4c4.7-6.3,10.3-12.2,15.7-17.8c10.1-10.5,19.7-20.5,23.3-33.2c-0.1-0.2-0.1-0.5-0.2-0.7
				c-23,23.6-78.1,44.2-90.6,76.1c-20,51.2,18.4,78.5,18.4,78.5l34.7,0C157.2,682.2,156.5,638.2,178.5,608.4z"/>
		</g>
		<g>
			<path fill="#11AB8E" d="M314.7,633c-13.9-29.3-68.3-53.3-90.3-75.9c0,0.1-0.1,0.2-0.1,0.3c3.6,12.7,13.2,22.7,23.3,33.2
				c5.4,5.6,11.1,11.5,15.7,17.8c22,29.8,21.2,73.9-1.5,103l34.4,0C296.3,711.5,338.2,682.6,314.7,633z"/>
		</g>
		<g>
			<path fill="#11AB8E" d="M258,612.3c-4.4-6-9.9-11.7-15.2-17.1c-8.3-8.6-16.9-17.5-22-28.2c-5.1,10.7-13.6,19.6-22,28.2
				c-5.3,5.5-10.8,11.1-15.2,17.1c-20.5,27.8-19.6,69.1,2.1,96l-3.7,3l77.6,0.1l-3.8-3.1C277.6,681.5,278.5,640.2,258,612.3z"/>
		</g>
		<g>
			<path fill="#11AB8E" d="M180.8,712.5l1.4-1.1l-2.3,0C180.2,711.8,180.5,712.1,180.8,712.5z"/>
		</g>
		<g>
			<path fill="#11AB8E" d="M261,712.5c0.3-0.3,0.5-0.7,0.8-1l-2.1,0L261,712.5z"/>
		</g>
	</g>
	<g>
		<rect x="123.9" y="702.5" fill="#11AB8E" width="194.2" height="12.7"/>
	</g>
	<g>
		<path fill="#11AB8E" d="M221.4,553.9c-7.8,0-14.2-6.3-14.2-14.2c0-7.8,6.3-14.2,14.2-14.2s14.2,6.3,14.2,14.2
			C235.5,547.6,229.2,553.9,221.4,553.9z M221.4,532.2c-4.2,0-7.6,3.4-7.6,7.6c0,4.2,3.4,7.6,7.6,7.6s7.6-3.4,7.6-7.6
			C229,535.6,225.6,532.2,221.4,532.2z"/>
	</g>
	<g>
		<circle fill="#11AB8E" cx="221.4" cy="517.8" r="8.3"/>
	</g>
	<g>
		<path fill="#11AB8E" d="M221.2,1017c-6.5,0-11.9-5.3-11.9-11.9c0-6.5,5.3-11.9,11.9-11.9s11.9,5.3,11.9,11.9
			C233,1011.6,227.7,1017,221.2,1017z M221.2,999.8c-2.9,0-5.3,2.4-5.3,5.3c0,2.9,2.4,5.3,5.3,5.3c2.9,0,5.3-2.4,5.3-5.3
			C226.4,1002.2,224.1,999.8,221.2,999.8z"/>
	</g>
	<g>
		<rect x="217.9" y="1013.7" fill="#11AB8E" width="6.6" height="42.6"/>
	</g>
</g>
<g>
	<line fill="#EE7A22" x1="594.2" y1="360.3" x2="594.2" y2="0"/>
	<rect x="592.2" y="0" fill="#EE7A22" width="4.1" height="360.3"/>
</g>
<g>
	<rect x="677.5" y="0" fill="#7C4D9F" width="4.1" height="324.5"/>
</g>
<g>
	<line fill="#EED363" x1="736.2" y1="635.2" x2="736.2" y2="0"/>
	<rect x="734.1" y="0" fill="#EED363" width="4.1" height="635.2"/>
</g>
<g>
	<g>
		<rect x="758.6" y="360.4" fill="#11AB8E" width="146.2" height="3.4"/>
	</g>
	<g>
		<rect x="763" y="350.7" fill="#11AB8E" width="137.5" height="6.6"/>
	</g>
	<g>
		<rect x="779.9" y="454.8" fill="#11AB8E" width="103.6" height="6.6"/>
	</g>
	<g>
		<path fill="#11AB8E" d="M831.4,508.5c-3.4,0-6.2-2.8-6.2-6.2c0-3.4,2.8-6.2,6.2-6.2c3.4,0,6.2,2.8,6.2,6.2
			C837.5,505.7,834.7,508.5,831.4,508.5z M831.4,499.6c-1.5,0-2.7,1.2-2.7,2.7c0,1.5,1.2,2.7,2.7,2.7c1.5,0,2.7-1.2,2.7-2.7
			C834.1,500.8,832.9,499.6,831.4,499.6z"/>
	</g>
	<g>
		<path fill="#11AB8E" d="M861.5,314.3c-26.7-7.6-29.6-17.1-29.8-17.4v0c0,0,0,0,0,0c0,0,0,0,0,0v0c-0.1,0.4-3.1,9.9-29.8,17.4
			c-31.9,9-34.9,32.8-33.3,32.8c1.5,0,61,0,63.1,0c0,0,0,0,0,0c2.1,0,61.6,0,63.1,0C896.4,347.1,893.4,323.3,861.5,314.3z"/>
	</g>
	<g>
		<g>
			
				<rect x="733.9" y="407.7" transform="matrix(0.1572 0.9876 -0.9876 0.1572 1065.0682 -425.8939)" fill="#11AB8E" width="96.3" height="6.8"/>
		</g>
		<g>
			
				<rect x="766.2" y="407.7" transform="matrix(4.912028e-002 0.9988 -0.9988 4.912028e-002 1184.3973 -421.8978)" fill="#11AB8E" width="95.2" height="6.8"/>
		</g>
		<g>
			
				<rect x="878" y="362.9" transform="matrix(0.9876 0.1572 -0.1572 0.9876 75.5935 -133.4616)" fill="#11AB8E" width="6.8" height="96.3"/>
		</g>
		<g>
			
				<rect x="846.3" y="363.5" transform="matrix(0.9988 4.911936e-002 -4.911936e-002 0.9988 21.2181 -41.24)" fill="#11AB8E" width="6.8" height="95.2"/>
		</g>
	</g>
	<g>
		<rect x="784.7" y="464.8" fill="#11AB8E" width="94.1" height="3.4"/>
	</g>
	<g>
		<rect x="789.5" y="466.1" fill="#11AB8E" width="84.5" height="9.6"/>
	</g>
	<g>
		<polygon fill="#11AB8E" points="789.5,479.6 831.5,498.1 874,479.6 		"/>
	</g>
	<g>
		<rect x="829.6" y="506.8" fill="#11AB8E" width="3.4" height="22.1"/>
	</g>
	<g>
		<path fill="#11AB8E" d="M832.2,294.8c-4.1,0-7.4-3.3-7.4-7.4s3.3-7.4,7.4-7.4s7.4,3.3,7.4,7.4S836.3,294.8,832.2,294.8z
			 M832.2,283.5c-2.2,0-3.9,1.8-3.9,3.9c0,2.2,1.8,3.9,3.9,3.9s3.9-1.8,3.9-3.9C836.2,285.3,834.4,283.5,832.2,283.5z"/>
	</g>
	<g>
		<circle fill="#11AB8E" cx="832.2" cy="276.1" r="4.3"/>
	</g>
</g>
<g>
	<line fill="#11AB8E" x1="832.2" y1="276" x2="832.2" y2="0"/>
	<rect x="830.1" y="0" fill="#11AB8E" width="4.1" height="276"/>
</g>
<g>
	<line fill="#11AB8E" x1="222" y1="512.7" x2="222" y2="0"/>
	<rect x="219.9" y="0" fill="#11AB8E" width="4.1" height="512.7"/>
</g>
<g>
	<path fill="#EE7A22" d="M932.9,258c0-15.2,11.1-27.8,25.6-30.2c-3.4-1-6.9-1.5-10.6-1.5c-21.1,0-38.2,17.1-38.2,38.2
		c0,21.1,17.1,38.2,38.2,38.2c14.4,0,27-8,33.5-19.8c-5,3.6-11.1,5.7-17.8,5.7C946.6,288.6,932.9,274.9,932.9,258z"/>
</g>
<polygon fill="#F0CE45" points="736.8,605.8 748.4,638.4 783,639.4 755.6,660.5 765.4,693.8 736.8,674.2 708.2,693.8 718,660.5 
	690.5,639.4 725.2,638.4 "/>
<polygon fill="#7C4D9F" points="679.7,315.3 686.8,335.2 707.9,335.7 691.2,348.6 697.1,368.9 679.7,357 662.3,368.9 668.2,348.6 
	651.5,335.7 672.6,335.2 "/>
<g>
	<rect x="1033.6" y="0" fill="#7C4D9F" width="4.1" height="324.5"/>
</g>
<polygon fill="#7C4D9F" points="1035.8,315.3 1042.9,335.2 1064,335.7 1047.3,348.6 1053.2,368.9 1035.8,357 1018.4,368.9 
	1024.3,348.6 1007.6,335.7 1028.7,335.2 "/>
<g>
	<polygon fill="#11AB8E" points="497.5,209.8 493.8,209.8 492.8,0 496.5,0 	"/>
</g>
<polygon fill="#11AB8E" points="495.7,201.4 502.2,219.5 521.3,219.9 506.2,231.7 511.7,250 495.8,239.3 480,250.1 485.4,231.7 
	470.2,220.1 489.3,219.5 "/>
<g>
	<polygon fill="#F0CE45" points="410,709.6 406.3,709.7 405.4,530 409.1,530 	"/>
</g>
<polygon fill="#F0CE45" points="1097.6,171.2 1104,189.3 1123.2,189.7 1108.1,201.5 1113.5,219.8 1097.7,209.1 1081.9,219.9 
	1087.2,201.5 1072,189.9 1091.2,189.3 "/>
<g>
	<polygon fill="#F0CE45" points="1099.3,179.6 1095.6,179.6 1094.7,0 1098.4,0 	"/>
</g>
<polygon fill="#EE7A22" points="143.8,459.7 151.1,480.2 172.9,480.7 155.7,494.1 161.9,514.9 143.9,502.7 126,515 132.1,494.1 
	114.8,480.9 136.5,480.2 "/>
<g>
	<polygon fill="#EE7A22" points="145.3,474 142.2,474 141.4,0 144.5,0 	"/>
</g>
<rect x="923.7" y="0" fill="#EE7A22" width="4.1" height="273.2"/>
<g>
	<g>
		<g>
			<rect x="282" y="371.4" fill="#7C4D9F" width="192.4" height="4.5"/>
		</g>
		<g>
			<rect x="287.7" y="358.6" fill="#7C4D9F" width="180.9" height="8.7"/>
		</g>
		<g>
			<rect x="310" y="495.7" fill="#7C4D9F" width="136.4" height="8.7"/>
		</g>
		<g>
			<path fill="#7C4D9F" d="M377.7,566.2c-4.5,0-8.1-3.6-8.1-8.1c0-4.5,3.6-8.1,8.1-8.1c4.5,0,8.1,3.6,8.1,8.1
				C385.8,562.6,382.1,566.2,377.7,566.2z M377.7,554.5c-2,0-3.6,1.6-3.6,3.6c0,2,1.6,3.6,3.6,3.6c2,0,3.6-1.6,3.6-3.6
				C381.3,556.2,379.7,554.5,377.7,554.5z"/>
		</g>
		<g>
			<path fill="#7C4D9F" d="M417.3,310.7c-35.1-9.9-39-22.5-39.1-22.9v0c0,0,0,0,0,0c0,0,0,0,0,0v0c-0.1,0.5-4,13-39.1,22.9
				c-41.9,11.9-45.9,43.2-43.9,43.2c2,0,80.3,0,83,0c0,0,0,0,0,0c2.8,0,81,0,83,0C463.2,353.9,459.3,322.5,417.3,310.7z"/>
		</g>
		<g>
			<g>
				
					<rect x="249.5" y="433.6" transform="matrix(0.1572 0.9876 -0.9876 0.1572 696.2852 60.2645)" fill="#7C4D9F" width="126.7" height="9"/>
			</g>
			<g>
				
					<rect x="291.9" y="433.6" transform="matrix(4.912028e-002 0.9988 -0.9988 4.912028e-002 774.7025 62.4502)" fill="#7C4D9F" width="125.3" height="9"/>
			</g>
			<g>
				
					<rect x="439" y="374.7" transform="matrix(0.9876 0.1572 -0.1572 0.9876 74.3936 -64.2836)" fill="#7C4D9F" width="9" height="126.7"/>
			</g>
			<g>
				
					<rect x="397.3" y="375.4" transform="matrix(0.9988 4.911936e-002 -4.911936e-002 0.9988 22.0039 -19.2077)" fill="#7C4D9F" width="9" height="125.3"/>
			</g>
		</g>
		<g>
			<rect x="316.3" y="508.8" fill="#7C4D9F" width="123.8" height="4.5"/>
		</g>
		<g>
			<rect x="322.6" y="510.5" fill="#7C4D9F" width="111.1" height="12.7"/>
		</g>
		<g>
			<polygon fill="#7C4D9F" points="322.6,528.3 377.9,552.6 433.7,528.3 			"/>
		</g>
		<g>
			<rect x="375.4" y="564" fill="#7C4D9F" width="4.5" height="29.1"/>
		</g>
		<g>
			<path fill="#7C4D9F" d="M378.8,285.1c-5.3,0-9.7-4.3-9.7-9.7s4.3-9.7,9.7-9.7c5.3,0,9.7,4.3,9.7,9.7S384.2,285.1,378.8,285.1z
				 M378.8,270.3c-2.9,0-5.2,2.3-5.2,5.2c0,2.9,2.3,5.2,5.2,5.2s5.2-2.3,5.2-5.2C384,272.6,381.7,270.3,378.8,270.3z"/>
		</g>
		<g>
			<circle fill="#7C4D9F" cx="378.8" cy="260.4" r="5.7"/>
		</g>
	</g>
	<g>
		<line fill="#7C4D9F" x1="378.2" y1="260.4" x2="378.2" y2="0"/>
		<rect x="376.1" y="0" fill="#7C4D9F" width="4.1" height="260.4"/>
	</g>
</g>
<g>
	<line fill="#EED363" x1="87.3" y1="308" x2="87.3" y2="0"/>
	<rect x="85.4" fill="#EED363" width="3.9" height="308"/>
</g>
<g>
	<path fill="#F0CE45" d="M96.8,318c0-24.5,17.8-44.7,41.1-48.6c-5.4-1.6-11.2-2.4-17.1-2.4c-34,0-61.6,27.6-61.6,61.6
		s27.6,61.6,61.6,61.6c23.2,0,43.4-12.9,53.9-31.8c-8.1,5.8-17.9,9.1-28.6,9.1C118.9,367.4,96.8,345.3,96.8,318z"/>
</g>
<text transform="matrix(1 0 0 1 816.6266 1138.0181)"><tspan x="0" y="0" fill="#877753" font-family="'Allura-Regular'" font-size="125.25">Ramadhan</tspan><tspan x="147.9" y="108" fill="#877753" font-family="'Allura-Regular'" font-size="125.25">Kareem</tspan></text>
</svg>
